<svg xmlns="http://www.w3.org/2000/svg" xmlns:xlink="http://www.w3.org/1999/xlink" width="290.425" height="48.031" viewBox="0 0 290.425 48.031">
  <defs>
    <clipPath id="clip-path">
      <rect id="Rectángulo_12" data-name="Rectángulo 12" width="290.425" height="48.031" transform="translate(0 0)" fill="#fff"/>
    </clipPath>
  </defs>
  <g id="Grupo_118" data-name="Grupo 118" transform="translate(-367.787 -2484.969)">
    <g id="Grupo_6" data-name="Grupo 6" transform="translate(658.212 2533) rotate(180)" clip-path="url(#clip-path)">
      <path id="Trazado_74" data-name="Trazado 74" d="M145.637,17.5a1.027,1.027,0,0,0-1.23.048,39.207,39.207,0,0,1-4.948,3.38c-16.206,9.322-34.27,13.3-53.668,14.892q-6.483.532-13.752.415A353.183,353.183,0,0,1,.085,27.646.094.094,0,0,1,0,27.528v-.007A.125.125,0,0,1,.147,27.4q10.7.822,17.443.891c16.958.166,33.945.228,50.558-.981a167.954,167.954,0,0,0,39.867-7.678c12.958-4.2,25.936-10.621,36.3-19.439a.65.65,0,0,1,.919-.014,105.8,105.8,0,0,0,23.607,14.471,145.91,145.91,0,0,0,44.242,11.8,370.371,370.371,0,0,0,39.978,1.949q19.308-.035,36.875-.753.962-.042.028.179a327.393,327.393,0,0,1-74.131,8.445,182.859,182.859,0,0,1-19.654-1.168c-17.5-1.886-35.942-7.553-50.544-17.608" fill="#fff"/>
      <path id="Trazado_75" data-name="Trazado 75" d="M144.69,47.722c-2.011-5.653-5.867-9.426-11.962-9.64a.374.374,0,0,1-.36-.386.358.358,0,0,1,.021-.112.476.476,0,0,1,.38-.318,14.224,14.224,0,0,0,11.617-10.158q.276-.85.574-.007a15.472,15.472,0,0,0,10.9,10.089q2.225.644-.049,1.092a13.782,13.782,0,0,0-9.219,6.24,21.2,21.2,0,0,0-1.444,3.221q-.249.586-.463-.021" fill="#fff"/>
    </g>
  </g>
</svg>
