<svg id="Grupo_62" data-name="Grupo 62" xmlns="http://www.w3.org/2000/svg" xmlns:xlink="http://www.w3.org/1999/xlink" width="221.101" height="199.344" viewBox="0 0 221.101 199.344">
  <defs>
    <clipPath id="clip-path">
      <rect id="Rect치ngulo_11" data-name="Rect치ngulo 11" width="221.101" height="199.344" fill="#fff"/>
    </clipPath>
  </defs>
  <g id="Grupo_4" data-name="Grupo 4" clip-path="url(#clip-path)">
    <path id="Trazado_37" data-name="Trazado 37" d="M13.914,499.229a3.6,3.6,0,0,0-1.532-1.5,5.011,5.011,0,0,0-2.347-.52A4.829,4.829,0,0,0,6.3,498.737a5.813,5.813,0,0,0-1.406,4.09,5.883,5.883,0,0,0,1.476,4.258,5.374,5.374,0,0,0,4.062,1.532,4.913,4.913,0,0,0,2.994-.9,5.1,5.1,0,0,0,1.785-2.586h-6.1V501.59H19.564v4.469a9.421,9.421,0,0,1-1.813,3.345,9.563,9.563,0,0,1-3.246,2.5,10.034,10.034,0,0,1-4.442.956,10.506,10.506,0,0,1-5.214-1.279,9.1,9.1,0,0,1-3.569-3.555,11.238,11.238,0,0,1,0-10.414,9.11,9.11,0,0,1,3.556-3.57,10.433,10.433,0,0,1,5.2-1.279,10.1,10.1,0,0,1,5.973,1.715,8.1,8.1,0,0,1,3.218,4.75Z" transform="translate(0 -342.071)" fill="#fff"/>
    <path id="Trazado_38" data-name="Trazado 38" d="M76.775,509.521h6.3v3.71h-11.1V493.5h4.807Z" transform="translate(-49.96 -342.581)" fill="#fff"/>
    <path id="Trazado_39" data-name="Trazado 39" d="M117.456,511.5a9.664,9.664,0,0,1-3.682-3.612,10.626,10.626,0,0,1,0-10.414,9.7,9.7,0,0,1,3.682-3.6,10.709,10.709,0,0,1,10.2,0,9.5,9.5,0,0,1,3.654,3.6,10.771,10.771,0,0,1-.014,10.414,9.6,9.6,0,0,1-3.654,3.612,10.684,10.684,0,0,1-10.189,0m8.882-4.666a6.826,6.826,0,0,0,0-8.334,4.864,4.864,0,0,0-3.78-1.56,4.92,4.92,0,0,0-3.809,1.546,6.868,6.868,0,0,0,0,8.362,4.9,4.9,0,0,0,3.809,1.56,4.841,4.841,0,0,0,3.78-1.574" transform="translate(-78.034 -341.943)" fill="#fff"/>
    <path id="Trazado_40" data-name="Trazado 40" d="M201.286,504.813a5.171,5.171,0,0,1-.689,6.971,7.291,7.291,0,0,1-4.82,1.448h-9.192V493.5h8.882a7.287,7.287,0,0,1,4.708,1.377,4.995,4.995,0,0,1,.787,6.634,4.725,4.725,0,0,1-2.432,1.6,4.591,4.591,0,0,1,2.754,1.7m-9.894-3.331h3.148a2.784,2.784,0,0,0,1.813-.521,1.867,1.867,0,0,0,.633-1.532,1.911,1.911,0,0,0-.633-1.546,2.737,2.737,0,0,0-1.813-.534h-3.148ZM196.8,508.8a1.947,1.947,0,0,0,.661-1.588,2.034,2.034,0,0,0-.689-1.63,2.821,2.821,0,0,0-1.9-.59h-3.485v4.357h3.542a2.851,2.851,0,0,0,1.869-.548" transform="translate(-129.525 -342.581)" fill="#fff"/>
    <path id="Trazado_41" data-name="Trazado 41" d="M255.77,509.747H248.4l-1.18,3.485h-5.032l7.139-19.732H254.9l7.14,19.732H256.95Zm-1.237-3.711-2.446-7.224-2.417,7.224Z" transform="translate(-168.127 -342.582)" fill="#fff"/>
    <path id="Trazado_42" data-name="Trazado 42" d="M318.233,509.521h6.3v3.71h-11.1V493.5h4.807Z" transform="translate(-217.577 -342.581)" fill="#fff"/>
    <path id="Trazado_43" data-name="Trazado 43" d="M380.09,497.35v3.991h6.437v3.71H380.09v4.328h7.28v3.851H375.284V493.5h12.087v3.851Z" transform="translate(-260.517 -342.581)" fill="#fff"/>
    <path id="Trazado_44" data-name="Trazado 44" d="M433.935,513.232l-4.02-6.043-3.542,6.043h-5.453l6.324-10.035-6.465-9.7h5.594l3.963,5.959,3.486-5.959h5.453l-6.268,9.951,6.521,9.782Z" transform="translate(-292.1 -342.581)" fill="#fff"/>
    <path id="Trazado_45" data-name="Trazado 45" d="M503.507,502.987a5.789,5.789,0,0,1-2.417,2.291,8.514,8.514,0,0,1-4.048.871h-2.98v7.083h-4.806V493.5h7.786a8.865,8.865,0,0,1,3.991.815,5.6,5.6,0,0,1,2.446,2.248,6.537,6.537,0,0,1,.815,3.289,6.353,6.353,0,0,1-.787,3.134m-4.779-1.307a2.811,2.811,0,0,0,0-3.654,2.868,2.868,0,0,0-2.052-.647h-2.614v4.947h2.614a2.865,2.865,0,0,0,2.052-.646" transform="translate(-339.635 -342.582)" fill="#fff"/>
    <path id="Trazado_46" data-name="Trazado 46" d="M548.255,511.5a9.662,9.662,0,0,1-3.682-3.612,10.625,10.625,0,0,1,0-10.414,9.693,9.693,0,0,1,3.682-3.6,10.709,10.709,0,0,1,10.2,0,9.5,9.5,0,0,1,3.654,3.6,10.771,10.771,0,0,1-.014,10.414,9.6,9.6,0,0,1-3.654,3.612,10.684,10.684,0,0,1-10.189,0m8.883-4.666a6.826,6.826,0,0,0,0-8.334,4.865,4.865,0,0,0-3.781-1.56,4.919,4.919,0,0,0-3.809,1.546,6.868,6.868,0,0,0,0,8.362,4.9,4.9,0,0,0,3.809,1.56,4.842,4.842,0,0,0,3.781-1.574" transform="translate(-377.09 -341.943)" fill="#fff"/>
    <path id="Trazado_47" data-name="Trazado 47" d="M627.448,513.231l-4.1-7.449h-1.153v7.449h-4.806V493.5h8.067a8.885,8.885,0,0,1,3.977.815,5.619,5.619,0,0,1,2.46,2.235,6.24,6.24,0,0,1,.815,3.162,5.873,5.873,0,0,1-1.11,3.513,5.975,5.975,0,0,1-3.275,2.192l4.554,7.814Zm-5.256-10.85h2.98a2.728,2.728,0,0,0,1.982-.646,2.443,2.443,0,0,0,.661-1.827,2.367,2.367,0,0,0-.661-1.771,2.729,2.729,0,0,0-1.982-.646h-2.98Z" transform="translate(-428.581 -342.581)" fill="#fff"/>
    <path id="Trazado_48" data-name="Trazado 48" d="M688.347,493.5v3.851h-5.229v15.881h-4.806V497.35h-5.228V493.5Z" transform="translate(-467.247 -342.581)" fill="#fff"/>
    <path id="Trazado_49" data-name="Trazado 49" d="M85.507,610.7a5.578,5.578,0,0,1-2.421-1.838,5.013,5.013,0,0,1-.956-2.93h4.519a2.19,2.19,0,0,0,.671,1.477,2.153,2.153,0,0,0,1.49.509,2.33,2.33,0,0,0,1.49-.435,1.454,1.454,0,0,0,.546-1.2,1.427,1.427,0,0,0-.435-1.068,3.513,3.513,0,0,0-1.068-.7,17.314,17.314,0,0,0-1.8-.621,19.6,19.6,0,0,1-2.756-1.043,5.089,5.089,0,0,1-1.838-1.539,4.288,4.288,0,0,1-.77-2.657,4.568,4.568,0,0,1,1.763-3.812,7.245,7.245,0,0,1,4.594-1.378,7.331,7.331,0,0,1,4.644,1.378,4.936,4.936,0,0,1,1.887,3.837H90.473a1.8,1.8,0,0,0-.621-1.328,2.188,2.188,0,0,0-1.465-.484,1.827,1.827,0,0,0-1.242.409,1.478,1.478,0,0,0-.472,1.18,1.461,1.461,0,0,0,.795,1.316,13,13,0,0,0,2.483,1.018,23.011,23.011,0,0,1,2.744,1.092,5.232,5.232,0,0,1,1.825,1.515,4.059,4.059,0,0,1,.769,2.557,5.019,5.019,0,0,1-.757,2.707,5.306,5.306,0,0,1-2.2,1.937,7.525,7.525,0,0,1-3.4.72,8.963,8.963,0,0,1-3.427-.621" transform="translate(-57.014 -411.977)" fill="#fff"/>
    <path id="Trazado_50" data-name="Trazado 50" d="M135.793,610.179a8.538,8.538,0,0,1-3.253-3.191,9.39,9.39,0,0,1,0-9.2,8.567,8.567,0,0,1,3.253-3.179,9.463,9.463,0,0,1,9.014,0,8.39,8.39,0,0,1,3.228,3.179,9.515,9.515,0,0,1-.013,9.2,8.474,8.474,0,0,1-3.228,3.191,9.438,9.438,0,0,1-9,0m7.847-4.122a6.03,6.03,0,0,0,0-7.362,4.3,4.3,0,0,0-3.34-1.378,4.346,4.346,0,0,0-3.365,1.366,6.067,6.067,0,0,0,0,7.387,4.326,4.326,0,0,0,3.365,1.378,4.277,4.277,0,0,0,3.34-1.391" transform="translate(-91.172 -411.977)" fill="#fff"/>
    <path id="Trazado_51" data-name="Trazado 51" d="M201.758,608.434h5.562v3.278h-9.808V594.28h4.246Z" transform="translate(-137.11 -412.542)" fill="#fff"/>
    <path id="Trazado_52" data-name="Trazado 52" d="M240.245,594.28v10.429a3.448,3.448,0,0,0,.77,2.408,2.9,2.9,0,0,0,2.259.844,2.985,2.985,0,0,0,2.284-.844,3.38,3.38,0,0,0,.795-2.408V594.28H250.6v10.4a7.4,7.4,0,0,1-.993,3.949,6.357,6.357,0,0,1-2.669,2.433,8.4,8.4,0,0,1-3.737.819,8.187,8.187,0,0,1-3.688-.807,6.015,6.015,0,0,1-2.57-2.434,7.771,7.771,0,0,1-.943-3.961v-10.4Z" transform="translate(-163.828 -412.542)" fill="#fff"/>
    <path id="Trazado_53" data-name="Trazado 53" d="M303.884,594.28v3.4h-4.619v14.03h-4.246v-14.03H290.4v-3.4Z" transform="translate(-201.592 -412.542)" fill="#fff"/>
    <rect id="Rect치ngulo_10" data-name="Rect치ngulo 10" width="4.246" height="17.432" transform="translate(104.426 181.738)" fill="#fff"/>
    <path id="Trazado_54" data-name="Trazado 54" d="M367.53,610.179a8.537,8.537,0,0,1-3.253-3.191,9.389,9.389,0,0,1,0-9.2,8.566,8.566,0,0,1,3.253-3.179,9.463,9.463,0,0,1,9.014,0,8.39,8.39,0,0,1,3.228,3.179,9.515,9.515,0,0,1-.013,9.2,8.474,8.474,0,0,1-3.228,3.191,9.438,9.438,0,0,1-9,0m7.847-4.122a6.03,6.03,0,0,0,0-7.362,4.3,4.3,0,0,0-3.34-1.378,4.346,4.346,0,0,0-3.365,1.366,6.067,6.067,0,0,0,0,7.387,4.326,4.326,0,0,0,3.365,1.378,4.277,4.277,0,0,0,3.34-1.391" transform="translate(-252.041 -411.977)" fill="#fff"/>
    <path id="Trazado_55" data-name="Trazado 55" d="M444.842,611.711H440.6l-7.1-10.752v10.752h-4.246V594.28h4.246l7.1,10.8v-10.8h4.246Z" transform="translate(-297.979 -412.542)" fill="#fff"/>
    <path id="Trazado_56" data-name="Trazado 56" d="M514.5,611.051a5.108,5.108,0,0,1-2.123-1.688,4.324,4.324,0,0,1-.795-2.5h2.409A3.17,3.17,0,0,0,515,608.916a3.608,3.608,0,0,0,2.57.832,3.757,3.757,0,0,0,2.546-.807,2.618,2.618,0,0,0,.931-2.073,2.354,2.354,0,0,0-.547-1.614,3.491,3.491,0,0,0-1.365-.943,21.387,21.387,0,0,0-2.21-.7,19.48,19.48,0,0,1-2.744-.894,4.415,4.415,0,0,1-1.763-1.4,4.118,4.118,0,0,1-.733-2.57,4.452,4.452,0,0,1,.72-2.508,4.693,4.693,0,0,1,2.024-1.688,7.121,7.121,0,0,1,2.992-.6,6.27,6.27,0,0,1,3.985,1.216,4.5,4.5,0,0,1,1.751,3.229h-2.483a2.682,2.682,0,0,0-1.043-1.751,3.707,3.707,0,0,0-2.433-.757,3.527,3.527,0,0,0-2.309.732,2.5,2.5,0,0,0-.894,2.048,2.218,2.218,0,0,0,.534,1.54,3.438,3.438,0,0,0,1.316.906q.782.311,2.2.708a20.617,20.617,0,0,1,2.756.931,4.6,4.6,0,0,1,1.788,1.415,4.117,4.117,0,0,1,.745,2.595,4.555,4.555,0,0,1-.67,2.384,4.927,4.927,0,0,1-1.987,1.813,6.558,6.558,0,0,1-3.1.7,7.4,7.4,0,0,1-3.067-.608" transform="translate(-355.135 -412.316)" fill="#fff"/>
    <path id="Trazado_57" data-name="Trazado 57" d="M558.636,644.332a1.539,1.539,0,0,1,1.092-2.632,1.418,1.418,0,0,1,1.055.447,1.591,1.591,0,0,1,0,2.185,1.416,1.416,0,0,1-1.055.447,1.485,1.485,0,0,1-1.092-.447" transform="translate(-387.488 -445.46)" fill="#fff"/>
    <path id="Trazado_58" data-name="Trazado 58" d="M585.671,608.369h-7.549l-1.391,3.849h-2.384l6.258-17.208h2.607l6.233,17.208h-2.384Zm-.646-1.838-3.129-8.74-3.129,8.74Z" transform="translate(-398.705 -413.049)" fill="#fff"/>
    <path id="Trazado_59" data-name="Trazado 59" d="M630.415,644.332a1.539,1.539,0,0,1,1.093-2.632,1.419,1.419,0,0,1,1.055.447,1.591,1.591,0,0,1,0,2.185,1.417,1.417,0,0,1-1.055.447,1.486,1.486,0,0,1-1.093-.447" transform="translate(-437.316 -445.46)" fill="#fff"/>
    <path id="Trazado_60" data-name="Trazado 60" d="M371.58,49.535q3.58,1.541,7.342,3.584.478.26-.066.26l-17.522.017a.163.163,0,0,1-.163-.163l0-8.02a.174.174,0,0,1,.2-.2l17.864.03a.093.093,0,0,1,.072.152,1.172,1.172,0,0,1-.34.283q-3.445,1.951-7.382,3.916a.076.076,0,0,0,0,.137" transform="translate(-250.718 -31.25)" fill="#fff"/>
    <path id="Trazado_61" data-name="Trazado 61" d="M305.805,98.41a2.815,2.815,0,0,1-2.424-2.98.1.1,0,0,1,.118-.12l14.367-.032a.112.112,0,0,1,.113.112s0,.007,0,.011l-.754,8.618a.226.226,0,0,1-.23.228q-1.236.1-2.6.241a31.068,31.068,0,0,0-11.841,3.755.3.3,0,0,1-.133.046q-.162,0-.1-.144c.831-1.794,1.572-4.161,2.052-5.436q.8-2.111,1.5-4.182a.08.08,0,0,0-.065-.118" transform="translate(-209.853 -66.141)" fill="#fff"/>
    <path id="Trazado_62" data-name="Trazado 62" d="M372.505,98.4a.158.158,0,0,0-.1.2q1.522,4.753,3.464,9.4.15.359-.195.173a32.556,32.556,0,0,0-14.688-3.941.12.12,0,0,1-.118-.116q-.211-4.36-.636-8.73c-.006-.058.021-.087.08-.087l14.523.025a.107.107,0,0,1,.121.118,2.709,2.709,0,0,1-1.792,2.794c-.218.091-.437.093-.659.167" transform="translate(-250.069 -66.155)" fill="#fff"/>
    <path id="Trazado_63" data-name="Trazado 63" d="M282.909,147.881a2.771,2.771,0,0,1-2.348-2.828.117.117,0,0,1,.137-.14c2.078.043,4.151.112,6.281-.01q6.714-.383,11.805-.438.566-.006,1.169.03a.1.1,0,0,1,.1.12l-.959,10.939a.149.149,0,0,1-.14.135,48.639,48.639,0,0,0-12.114,2.048,34.287,34.287,0,0,0-7.661,3.3q-1.251.744-2.49,1.551-.22.144-.108-.093.294-.623.649-1.293c1.012-1.913,1.76-3.954,2.629-5.913.554-1.245.972-2.509,1.536-3.72q.814-1.75,1.579-3.55.046-.11-.07-.137" transform="translate(-191.976 -100.286)" fill="#fff"/>
    <path id="Trazado_64" data-name="Trazado 64" d="M377.313,148.066a5.2,5.2,0,0,1,.319.606q1.492,3.39,2.944,6.776c.968,2.263,2.113,4.609,3.2,6.9q.2.41-.182.154a42.514,42.514,0,0,0-22.211-6.818.19.19,0,0,1-.182-.176l-.847-10.909q-.011-.12.112-.12,6.384.072,13.853.458c1.828.1,3.629.032,5.455-.021a.1.1,0,0,1,.12.116,2.868,2.868,0,0,1-2.517,2.878q-.144.026-.068.152" transform="translate(-250.155 -100.298)" fill="#fff"/>
    <path id="Trazado_65" data-name="Trazado 65" d="M249.825,214.111q-3.168-.579-2.88-3.646a.108.108,0,0,1,.123-.11,24.246,24.246,0,0,0,3.848-.19q3.832-.55,9.5-1.469a116.778,116.778,0,0,1,14.962-1.494q.182-.006.163.176-.888,8.005-1.921,16-.268,2.082-.492,4.2-.442,4.159-.848,8.422a.132.132,0,0,1-.131.133,46.421,46.421,0,0,0-21.273,7.454,27.964,27.964,0,0,0-5.072,4.4,32.417,32.417,0,0,0-2.168,2.773q-.133.188-.157-.04c-.036-.332-.032-.653-.076-.985a46.952,46.952,0,0,1-.351-9.44q.218-3.181.822-7.088a41.258,41.258,0,0,1,.862-4.159q.657-2.5,1.139-4.645a9.15,9.15,0,0,1,.543-1.634c.418-.966.666-2.035,1.006-3.041a14.5,14.5,0,0,1,.617-1.517q.94-2,1.813-4.032a.046.046,0,0,0-.025-.061l-.009,0" transform="translate(-168.658 -143.837)" fill="#fff"/>
    <path id="Trazado_66" data-name="Trazado 66" d="M390.1,214.088a.106.106,0,0,0-.1.112.12.12,0,0,0,.005.03q.268.78.624,1.566a76.417,76.417,0,0,1,4.567,13.68,60.46,60.46,0,0,1,1.72,13.329q.011.906-.053,1.921c-.123,1.989-.226,3.916-.528,5.917q-.076.5-.277.036a7.649,7.649,0,0,0-1.194-1.68,25.71,25.71,0,0,0-5.311-4.975,38.22,38.22,0,0,0-7.456-4.14,53.057,53.057,0,0,0-14.6-3.747.137.137,0,0,1-.123-.125c-.8-9.5-2.006-18.87-3.24-28.558q-.03-.222.195-.211A134.865,134.865,0,0,1,379,208.638q3.883.6,7.8,1.217a51.2,51.2,0,0,0,5.985.594.136.136,0,0,1,.146.131,2.939,2.939,0,0,1-2.83,3.508" transform="translate(-252.778 -143.865)" fill="#fff"/>
    <path id="Trazado_67" data-name="Trazado 67" d="M384.242,332.526q-.966,2.154-1.843,4.317a.085.085,0,0,1-.129.053,36.842,36.842,0,0,1-10.18-6.038,22.127,22.127,0,0,1-7.483-15.4q-.012-.173.1-.044a38,38,0,0,0,8.7,7.371,40.024,40.024,0,0,0,12.851,4.884q.114.021.074.129c-.6,1.6-1.393,3.166-2.1,4.732" transform="translate(-253.104 -218.916)" fill="#fff"/>
    <path id="Trazado_68" data-name="Trazado 68" d="M280.968,334.137q-1.27-2.9-2.568-6a.069.069,0,0,1,.035-.091l.013,0a37.63,37.63,0,0,0,19.2-9.9q1.107-1.107,2.058-2.158.222-.245.188.083c-.125,1.152-.184,2.272-.421,3.424-1.281,6.243-5.632,11.431-10.97,14.73a37.987,37.987,0,0,1-6.129,3.048.1.1,0,0,1-.144-.064q-.606-1.577-1.26-3.071" transform="translate(-193.258 -219.282)" fill="#fff"/>
    <path id="Trazado_69" data-name="Trazado 69" d="M381.985,370.173a35.182,35.182,0,0,0,9.123,2.337q7.877.833,15.673.9c5.934.051,12.044.146,18.077-.281q1.272-.089.032.207a98.654,98.654,0,0,1-21.467,2.72c-1.492.023-2.967.123-4.453.072-.907-.031-1.8.085-2.678.055a80.565,80.565,0,0,1-12.547-1.249q-.945-.182-3.183-.854a27.1,27.1,0,0,1-6.689-3.024,12.777,12.777,0,0,1-3.946-3.8.7.7,0,0,1-.112-.42q.15-2.488.266-4.82a5.465,5.465,0,0,0-.023-.814q-.029-.3.148-.057a25.842,25.842,0,0,0,11.778,9.026" transform="translate(-256.721 -250.628)" fill="#fff"/>
    <path id="Trazado_70" data-name="Trazado 70" d="M218.059,368.152c-2.855,3.593-7.19,5.636-11.56,6.767a50.584,50.584,0,0,1-9.024,1.481c-2.329.171-4.523.33-6.837.3q-3.965-.053-7.781-.2a93.3,93.3,0,0,1-19.663-2.849.043.043,0,0,1-.032-.049l.011-.061a.008.008,0,0,1,.008-.006q3.576.338,7.173.382,8.62.108,17.327-.169a93.408,93.408,0,0,0,10.326-.934c6.824-.993,13.027-3.622,17.83-8.561a16.652,16.652,0,0,0,1.97-2.447c.043-.065.068-.058.072.019q.171,2.747.446,5.425a1.211,1.211,0,0,1-.266.9" transform="translate(-113.265 -251.129)" fill="#fff"/>
    <path id="Trazado_71" data-name="Trazado 71" d="M256.323,398.448a.314.314,0,0,0-.376.015,11.99,11.99,0,0,1-1.513,1.034c-4.956,2.851-10.48,4.068-16.412,4.554q-1.983.163-4.206.127a108.005,108.005,0,0,1-22-2.627.029.029,0,0,1-.025-.036v0a.038.038,0,0,1,.044-.036q3.272.251,5.334.272c5.186.051,10.381.07,15.461-.3a51.359,51.359,0,0,0,12.192-2.348,32.956,32.956,0,0,0,11.1-5.945.2.2,0,0,1,.281,0,32.353,32.353,0,0,0,7.219,4.425,44.621,44.621,0,0,0,13.53,3.609,113.265,113.265,0,0,0,12.226.6q5.9-.011,11.277-.23.294-.013.009.055a100.12,100.12,0,0,1-22.67,2.583,55.924,55.924,0,0,1-6.01-.357,34.192,34.192,0,0,1-15.457-5.385" transform="translate(-147.019 -272.882)" fill="#fff"/>
    <path id="Trazado_72" data-name="Trazado 72" d="M347.921,426.211a3.929,3.929,0,0,0-3.658-2.948.114.114,0,0,1-.11-.118.109.109,0,0,1,.006-.034.146.146,0,0,1,.116-.1,4.35,4.35,0,0,0,3.553-3.106q.084-.26.176,0a4.732,4.732,0,0,0,3.335,3.085q.681.2-.015.334a4.215,4.215,0,0,0-2.819,1.908,6.486,6.486,0,0,0-.442.985q-.076.179-.142-.006" transform="translate(-238.907 -291.403)" fill="#fff"/>
    <path id="Trazado_73" data-name="Trazado 73" d="M253.145,116.624c22.481-27.737,20.654-68.043-4.882-93.1A68.031,68.031,0,0,0,171.436,10.7a73.272,73.272,0,0,0-11.307,6.832,68.595,68.595,0,0,0-27.413,50.419,70.263,70.263,0,0,0,15.778,48.984A67.946,67.946,0,0,1,133.5,91.349C116.7,37.405,166.472-12.679,220.578,2.878,245.14,9.82,264.81,31.136,269.745,56.153a68.993,68.993,0,0,1-16.6,60.47" transform="translate(-90.374 0)" fill="#fff"/>
  </g>
</svg>
