<svg xmlns="http://www.w3.org/2000/svg" xmlns:xlink="http://www.w3.org/1999/xlink" width="569" height="372" viewBox="0 0 569 372">
  <defs>
    <filter id="Rectángulo_7" x="0" y="0" width="569" height="372" filterUnits="userSpaceOnUse">
      <feOffset dy="6" input="SourceAlpha"/>
      <feGaussianBlur stdDeviation="3" result="blur"/>
      <feFlood flood-opacity="0.161"/>
      <feComposite operator="in" in2="blur"/>
      <feComposite in="SourceGraphic"/>
    </filter>
    <clipPath id="clip-path">
      <rect id="Rectángulo_11" data-name="Rectángulo 11" width="266.647" height="240.408" fill="#fff"/>
    </clipPath>
  </defs>
  <g id="Grupo_70" data-name="Grupo 70" transform="translate(-676 -1242)">
    <g transform="matrix(1, 0, 0, 1, 676, 1242)" filter="url(#Rectángulo_7)">
      <rect id="Rectángulo_7-2" data-name="Rectángulo 7" width="551" height="354" transform="translate(9 3)" fill="#072052"/>
    </g>
    <g id="Grupo_5" data-name="Grupo 5" transform="translate(827.177 1301.796)">
      <g id="Grupo_4" data-name="Grupo 4" clip-path="url(#clip-path)">
        <path id="Trazado_37" data-name="Trazado 37" d="M16.78,500.561a4.338,4.338,0,0,0-1.848-1.813,6.043,6.043,0,0,0-2.831-.627,5.824,5.824,0,0,0-4.508,1.848A7.01,7.01,0,0,0,5.9,504.9a7.1,7.1,0,0,0,1.78,5.135,6.481,6.481,0,0,0,4.9,1.847,5.925,5.925,0,0,0,3.61-1.084,6.153,6.153,0,0,0,2.153-3.119H10.983v-4.271H23.594v5.39a11.362,11.362,0,0,1-2.187,4.034,11.533,11.533,0,0,1-3.915,3.017A12.1,12.1,0,0,1,12.136,517a12.671,12.671,0,0,1-6.288-1.543,10.979,10.979,0,0,1-4.3-4.288,13.553,13.553,0,0,1,0-12.56,10.987,10.987,0,0,1,4.288-4.305,12.581,12.581,0,0,1,6.271-1.543,12.185,12.185,0,0,1,7.2,2.068,9.762,9.762,0,0,1,3.881,5.729Z" transform="translate(0 -311.028)" fill="#fff"/>
        <path id="Trazado_38" data-name="Trazado 38" d="M77.765,512.822h7.593V517.3H71.968V493.5h5.8Z" transform="translate(-45.426 -311.492)" fill="#fff"/>
        <path id="Trazado_39" data-name="Trazado 39" d="M118.495,515.394a11.654,11.654,0,0,1-4.441-4.356,12.815,12.815,0,0,1,0-12.559,11.692,11.692,0,0,1,4.441-4.339,12.915,12.915,0,0,1,12.305,0,11.453,11.453,0,0,1,4.407,4.339,12.99,12.99,0,0,1-.017,12.559,11.572,11.572,0,0,1-4.407,4.356,12.885,12.885,0,0,1-12.288,0m10.712-5.627a8.232,8.232,0,0,0,0-10.051,5.866,5.866,0,0,0-4.559-1.881,5.933,5.933,0,0,0-4.594,1.864,8.282,8.282,0,0,0,0,10.085,5.9,5.9,0,0,0,4.594,1.881,5.838,5.838,0,0,0,4.559-1.9" transform="translate(-70.952 -310.912)" fill="#fff"/>
        <path id="Trazado_40" data-name="Trazado 40" d="M204.314,507.143a6.237,6.237,0,0,1-.831,8.407,8.793,8.793,0,0,1-5.813,1.746H186.585V493.5H197.3a8.789,8.789,0,0,1,5.678,1.661,6.023,6.023,0,0,1,.949,8,5.7,5.7,0,0,1-2.932,1.933,5.536,5.536,0,0,1,3.322,2.051m-11.932-4.017h3.8a3.358,3.358,0,0,0,2.186-.628,2.251,2.251,0,0,0,.763-1.847,2.3,2.3,0,0,0-.763-1.865,3.3,3.3,0,0,0-2.186-.644h-3.8Zm6.525,8.83a2.348,2.348,0,0,0,.8-1.915,2.453,2.453,0,0,0-.831-1.966,3.4,3.4,0,0,0-2.288-.712h-4.2v5.254h4.271a3.438,3.438,0,0,0,2.254-.661" transform="translate(-117.771 -311.492)" fill="#fff"/>
        <path id="Trazado_41" data-name="Trazado 41" d="M258.566,513.094h-8.882l-1.424,4.2h-6.068l8.61-23.8h6.712l8.611,23.8H259.99Zm-1.491-4.475-2.949-8.712-2.915,8.712Z" transform="translate(-152.87 -311.493)" fill="#fff"/>
        <path id="Trazado_42" data-name="Trazado 42" d="M319.223,512.822h7.593V517.3h-13.39V493.5h5.8Z" transform="translate(-197.832 -311.492)" fill="#fff"/>
        <path id="Trazado_43" data-name="Trazado 43" d="M381.081,498.144v4.814h7.763v4.475h-7.763v5.22h8.78V517.3H375.284V493.5h14.577v4.644Z" transform="translate(-236.876 -311.492)" fill="#fff"/>
        <path id="Trazado_44" data-name="Trazado 44" d="M436.645,517.3l-4.848-7.288-4.271,7.288H420.95l7.627-12.1-7.8-11.7h6.746l4.78,7.187,4.2-7.187h6.577l-7.56,12,7.865,11.8Z" transform="translate(-265.592 -311.492)" fill="#fff"/>
        <path id="Trazado_45" data-name="Trazado 45" d="M506.443,504.941a6.981,6.981,0,0,1-2.915,2.763,10.268,10.268,0,0,1-4.882,1.051h-3.593V517.3h-5.8V493.5h9.39a10.691,10.691,0,0,1,4.814.983,6.758,6.758,0,0,1,2.949,2.712,7.883,7.883,0,0,1,.983,3.967,7.662,7.662,0,0,1-.949,3.78m-5.763-1.576a3.39,3.39,0,0,0,0-4.407,3.459,3.459,0,0,0-2.474-.78h-3.153v5.966h3.153a3.456,3.456,0,0,0,2.474-.78" transform="translate(-308.814 -311.493)" fill="#fff"/>
        <path id="Trazado_46" data-name="Trazado 46" d="M549.295,515.394a11.653,11.653,0,0,1-4.44-4.356,12.814,12.814,0,0,1,0-12.559,11.691,11.691,0,0,1,4.44-4.339,12.915,12.915,0,0,1,12.305,0,11.451,11.451,0,0,1,4.407,4.339,12.99,12.99,0,0,1-.017,12.559,11.573,11.573,0,0,1-4.407,4.356,12.885,12.885,0,0,1-12.288,0m10.712-5.627a8.232,8.232,0,0,0,0-10.051,5.868,5.868,0,0,0-4.56-1.881,5.933,5.933,0,0,0-4.593,1.864,8.282,8.282,0,0,0,0,10.085,5.9,5.9,0,0,0,4.593,1.881,5.839,5.839,0,0,0,4.56-1.9" transform="translate(-342.869 -310.912)" fill="#fff"/>
        <path id="Trazado_47" data-name="Trazado 47" d="M629.521,517.3l-4.949-8.983h-1.39V517.3h-5.8V493.5h9.729a10.715,10.715,0,0,1,4.8.983,6.777,6.777,0,0,1,2.966,2.695,7.525,7.525,0,0,1,.983,3.814,7.083,7.083,0,0,1-1.339,4.237,7.2,7.2,0,0,1-3.949,2.644l5.492,9.424Zm-6.339-13.085h3.593a3.29,3.29,0,0,0,2.39-.779,2.946,2.946,0,0,0,.8-2.2,2.855,2.855,0,0,0-.8-2.136,3.292,3.292,0,0,0-2.39-.78h-3.593Z" transform="translate(-389.688 -311.492)" fill="#fff"/>
        <path id="Trazado_48" data-name="Trazado 48" d="M691.491,493.5v4.644h-6.306V517.3h-5.8V498.144h-6.306V493.5Z" transform="translate(-424.844 -311.492)" fill="#fff"/>
        <path id="Trazado_49" data-name="Trazado 49" d="M86.2,614.25a6.728,6.728,0,0,1-2.919-2.216A6.046,6.046,0,0,1,82.13,608.5h5.45a2.641,2.641,0,0,0,.809,1.782,2.6,2.6,0,0,0,1.8.614,2.81,2.81,0,0,0,1.8-.524,1.753,1.753,0,0,0,.659-1.452,1.722,1.722,0,0,0-.524-1.288,4.237,4.237,0,0,0-1.288-.839,20.879,20.879,0,0,0-2.172-.749,23.637,23.637,0,0,1-3.324-1.258,6.137,6.137,0,0,1-2.216-1.857,5.172,5.172,0,0,1-.928-3.2,5.509,5.509,0,0,1,2.126-4.6,8.737,8.737,0,0,1,5.54-1.662,8.841,8.841,0,0,1,5.6,1.662,5.952,5.952,0,0,1,2.276,4.627h-5.54a2.168,2.168,0,0,0-.749-1.6,2.639,2.639,0,0,0-1.767-.584,2.2,2.2,0,0,0-1.5.494,1.783,1.783,0,0,0-.569,1.423,1.762,1.762,0,0,0,.959,1.587,15.68,15.68,0,0,0,2.995,1.228,27.746,27.746,0,0,1,3.309,1.317,6.309,6.309,0,0,1,2.2,1.827A4.895,4.895,0,0,1,98,608.53a6.052,6.052,0,0,1-.913,3.264,6.4,6.4,0,0,1-2.65,2.336,9.075,9.075,0,0,1-4.1.868,10.809,10.809,0,0,1-4.133-.749" transform="translate(-51.84 -374.591)" fill="#fff"/>
        <path id="Trazado_50" data-name="Trazado 50" d="M136.711,613.621a10.3,10.3,0,0,1-3.923-3.848,11.324,11.324,0,0,1,0-11.1,10.332,10.332,0,0,1,3.923-3.833,11.412,11.412,0,0,1,10.871,0,10.118,10.118,0,0,1,3.893,3.833,11.476,11.476,0,0,1-.015,11.1,10.219,10.219,0,0,1-3.893,3.848,11.383,11.383,0,0,1-10.856,0m9.463-4.971a7.272,7.272,0,0,0,0-8.879,5.181,5.181,0,0,0-4.028-1.662,5.242,5.242,0,0,0-4.058,1.647,7.317,7.317,0,0,0,0,8.909,5.217,5.217,0,0,0,4.058,1.662,5.159,5.159,0,0,0,4.028-1.677" transform="translate(-82.898 -374.591)" fill="#fff"/>
        <path id="Trazado_51" data-name="Trazado 51" d="M202.632,611.349h6.708V615.3H197.511V594.28h5.121Z" transform="translate(-124.667 -375.104)" fill="#fff"/>
        <path id="Trazado_52" data-name="Trazado 52" d="M241.12,594.28v12.578a4.158,4.158,0,0,0,.929,2.9,3.5,3.5,0,0,0,2.725,1.018,3.6,3.6,0,0,0,2.755-1.018,4.077,4.077,0,0,0,.959-2.9V594.28h5.121v12.547a8.924,8.924,0,0,1-1.2,4.762,7.667,7.667,0,0,1-3.219,2.935,10.126,10.126,0,0,1-4.507.988,9.873,9.873,0,0,1-4.447-.973,7.254,7.254,0,0,1-3.1-2.935A9.373,9.373,0,0,1,236,606.827V594.28Z" transform="translate(-148.96 -375.104)" fill="#fff"/>
        <path id="Trazado_53" data-name="Trazado 53" d="M306.661,594.28v4.1h-5.57V615.3h-5.121v-16.92H290.4v-4.1Z" transform="translate(-183.298 -375.104)" fill="#fff"/>
        <rect id="Rectángulo_10" data-name="Rectángulo 10" width="5.121" height="21.022" transform="translate(125.938 219.176)" fill="#fff"/>
        <path id="Trazado_54" data-name="Trazado 54" d="M368.448,613.621a10.3,10.3,0,0,1-3.923-3.848,11.324,11.324,0,0,1,0-11.1,10.331,10.331,0,0,1,3.923-3.833,11.412,11.412,0,0,1,10.871,0,10.118,10.118,0,0,1,3.893,3.833,11.476,11.476,0,0,1-.015,11.1,10.219,10.219,0,0,1-3.893,3.848,11.383,11.383,0,0,1-10.855,0m9.463-4.971a7.272,7.272,0,0,0,0-8.879,5.181,5.181,0,0,0-4.028-1.662,5.242,5.242,0,0,0-4.058,1.647,7.317,7.317,0,0,0,0,8.909,5.217,5.217,0,0,0,4.058,1.662,5.159,5.159,0,0,0,4.028-1.677" transform="translate(-229.168 -374.591)" fill="#fff"/>
        <path id="Trazado_55" data-name="Trazado 55" d="M448.055,615.3h-5.121l-8.565-12.967V615.3h-5.121V594.28h5.121l8.565,13.027V594.28h5.121Z" transform="translate(-270.938 -375.104)" fill="#fff"/>
        <path id="Trazado_56" data-name="Trazado 56" d="M515.1,614.573a6.161,6.161,0,0,1-2.56-2.036,5.215,5.215,0,0,1-.958-3.01h2.9A3.822,3.822,0,0,0,515.7,612a4.351,4.351,0,0,0,3.1,1,4.531,4.531,0,0,0,3.07-.973,3.158,3.158,0,0,0,1.123-2.5,2.839,2.839,0,0,0-.659-1.947,4.21,4.21,0,0,0-1.647-1.138,25.806,25.806,0,0,0-2.665-.839,23.48,23.48,0,0,1-3.309-1.078,5.324,5.324,0,0,1-2.126-1.692,4.965,4.965,0,0,1-.884-3.1,5.369,5.369,0,0,1,.869-3.025,5.659,5.659,0,0,1,2.441-2.036,8.587,8.587,0,0,1,3.608-.719,7.562,7.562,0,0,1,4.806,1.467,5.424,5.424,0,0,1,2.111,3.894h-2.995a3.235,3.235,0,0,0-1.258-2.111,4.471,4.471,0,0,0-2.935-.913,4.254,4.254,0,0,0-2.785.883,3.017,3.017,0,0,0-1.078,2.47,2.675,2.675,0,0,0,.644,1.857,4.146,4.146,0,0,0,1.587,1.093q.943.375,2.65.853a24.873,24.873,0,0,1,3.324,1.123,5.552,5.552,0,0,1,2.156,1.707,4.965,4.965,0,0,1,.9,3.129,5.493,5.493,0,0,1-.808,2.875,5.941,5.941,0,0,1-2.4,2.186,7.908,7.908,0,0,1-3.743.838,8.923,8.923,0,0,1-3.7-.734" transform="translate(-322.906 -374.899)" fill="#fff"/>
        <path id="Trazado_57" data-name="Trazado 57" d="M558.728,644.874a1.856,1.856,0,0,1,1.317-3.174,1.71,1.71,0,0,1,1.273.539,1.919,1.919,0,0,1,0,2.635,1.708,1.708,0,0,1-1.273.539,1.791,1.791,0,0,1-1.317-.539" transform="translate(-352.324 -405.035)" fill="#fff"/>
        <path id="Trazado_58" data-name="Trazado 58" d="M588,611.121h-9.1l-1.677,4.642h-2.875l7.547-20.753h3.144l7.517,20.753h-2.875Zm-.779-2.216-3.773-10.541-3.773,10.541Z" transform="translate(-362.523 -375.565)" fill="#fff"/>
        <path id="Trazado_59" data-name="Trazado 59" d="M630.507,644.874a1.856,1.856,0,0,1,1.318-3.174,1.711,1.711,0,0,1,1.273.539,1.919,1.919,0,0,1,0,2.635,1.709,1.709,0,0,1-1.273.539,1.792,1.792,0,0,1-1.318-.539" transform="translate(-397.63 -405.035)" fill="#fff"/>
        <path id="Trazado_60" data-name="Trazado 60" d="M373.725,50.466q4.317,1.858,8.854,4.322.576.314-.079.313l-21.131.021a.2.2,0,0,1-.2-.2l-.005-9.672a.21.21,0,0,1,.237-.237l21.544.036a.112.112,0,0,1,.087.183,1.414,1.414,0,0,1-.41.342q-4.155,2.353-8.9,4.723a.092.092,0,0,0,0,.166" transform="translate(-227.965 -28.414)" fill="#fff"/>
        <path id="Trazado_61" data-name="Trazado 61" d="M306.527,99.055a3.4,3.4,0,0,1-2.924-3.594.126.126,0,0,1,.143-.145l17.326-.038a.136.136,0,0,1,.136.135s0,.009,0,.013l-.91,10.394a.273.273,0,0,1-.278.275q-1.491.115-3.14.291a37.469,37.469,0,0,0-14.28,4.529.366.366,0,0,1-.161.056q-.2,0-.115-.173c1-2.164,1.9-5.018,2.475-6.555q.96-2.546,1.807-5.044a.1.1,0,0,0-.079-.143" transform="translate(-190.809 -60.139)" fill="#fff"/>
        <path id="Trazado_62" data-name="Trazado 62" d="M375.034,99.043a.19.19,0,0,0-.12.24q1.835,5.732,4.178,11.334.181.433-.235.209a39.262,39.262,0,0,0-17.714-4.753.145.145,0,0,1-.143-.14q-.255-5.258-.767-10.529c-.007-.07.025-.1.1-.1l17.515.031a.129.129,0,0,1,.145.143,3.267,3.267,0,0,1-2.161,3.369c-.263.11-.527.112-.8.2" transform="translate(-227.375 -60.152)" fill="#fff"/>
        <path id="Trazado_63" data-name="Trazado 63" d="M284.219,148.585a3.342,3.342,0,0,1-2.832-3.41.142.142,0,0,1,.166-.169c2.506.051,5.006.135,7.575-.013q8.1-.461,14.237-.528.683-.007,1.409.036a.12.12,0,0,1,.125.145l-1.157,13.192a.18.18,0,0,1-.169.163,58.659,58.659,0,0,0-14.609,2.47,41.348,41.348,0,0,0-9.239,3.979q-1.509.9-3,1.871-.265.173-.13-.112.355-.752.783-1.56c1.221-2.307,2.123-4.769,3.171-7.131.668-1.5,1.172-3.025,1.853-4.486q.981-2.111,1.9-4.282.056-.132-.084-.166" transform="translate(-174.554 -91.185)" fill="#fff"/>
        <path id="Trazado_64" data-name="Trazado 64" d="M380.806,148.8a6.263,6.263,0,0,1,.385.731q1.8,4.088,3.55,8.171c1.167,2.73,2.549,5.559,3.864,8.324q.237.495-.219.186c-7.814-5.266-17.209-7.858-26.787-8.222a.23.23,0,0,1-.219-.212l-1.022-13.157q-.013-.145.135-.145,7.7.086,16.707.553c2.2.115,4.376.038,6.578-.025a.124.124,0,0,1,.145.14,3.459,3.459,0,0,1-3.036,3.471q-.173.031-.082.184" transform="translate(-227.454 -91.196)" fill="#fff"/>
        <path id="Trazado_65" data-name="Trazado 65" d="M251.24,215.534q-3.82-.7-3.474-4.4a.13.13,0,0,1,.148-.132,29.24,29.24,0,0,0,4.641-.229q4.621-.663,11.461-1.771a140.831,140.831,0,0,1,18.045-1.8q.22-.008.2.212-1.07,9.654-2.317,19.291-.324,2.51-.594,5.062-.533,5.016-1.022,10.157a.159.159,0,0,1-.158.16c-9.117,1-18.249,3.856-25.655,8.989a33.722,33.722,0,0,0-6.117,5.312,39.092,39.092,0,0,0-2.615,3.344q-.161.227-.189-.049c-.043-.4-.038-.787-.092-1.188a56.626,56.626,0,0,1-.423-11.385q.263-3.836.991-8.548a49.763,49.763,0,0,1,1.04-5.016q.793-3.021,1.374-5.6a11.034,11.034,0,0,1,.655-1.97c.5-1.165.8-2.454,1.213-3.667a17.5,17.5,0,0,1,.744-1.83q1.134-2.411,2.187-4.863a.056.056,0,0,0-.031-.073l-.01,0" transform="translate(-153.353 -130.784)" fill="#fff"/>
        <path id="Trazado_66" data-name="Trazado 66" d="M395.452,215.5a.128.128,0,0,0-.121.135.144.144,0,0,0,.007.036q.324.94.752,1.889a92.161,92.161,0,0,1,5.508,16.5,72.915,72.915,0,0,1,2.075,16.075q.013,1.093-.064,2.317c-.148,2.4-.273,4.723-.637,7.136q-.091.6-.334.044a9.225,9.225,0,0,0-1.44-2.026,31.007,31.007,0,0,0-6.405-6,46.093,46.093,0,0,0-8.992-4.993,63.987,63.987,0,0,0-17.606-4.519.165.165,0,0,1-.148-.15c-.963-11.459-2.419-22.757-3.907-34.441q-.036-.267.235-.255a162.643,162.643,0,0,1,17.688,1.682q4.682.719,9.41,1.468a61.744,61.744,0,0,0,7.218.716.164.164,0,0,1,.176.158,3.544,3.544,0,0,1-3.413,4.231" transform="translate(-229.838 -130.81)" fill="#fff"/>
        <path id="Trazado_67" data-name="Trazado 67" d="M388.287,336.063q-1.165,2.6-2.222,5.207a.1.1,0,0,1-.156.064,44.431,44.431,0,0,1-12.277-7.282,26.685,26.685,0,0,1-9.025-18.577q-.015-.209.122-.053a45.826,45.826,0,0,0,10.5,8.89,48.27,48.27,0,0,0,15.5,5.89q.138.025.089.155c-.724,1.934-1.68,3.818-2.528,5.707" transform="translate(-230.135 -199.049)" fill="#fff"/>
        <path id="Trazado_68" data-name="Trazado 68" d="M281.5,337.9q-1.532-3.5-3.1-7.233a.084.084,0,0,1,.042-.11l.016,0a45.382,45.382,0,0,0,23.15-11.938q1.335-1.335,2.482-2.6.268-.3.227.1c-.15,1.389-.222,2.74-.507,4.129-1.545,7.529-6.792,13.786-13.23,17.764a45.812,45.812,0,0,1-7.391,3.676.119.119,0,0,1-.173-.077q-.731-1.9-1.519-3.7" transform="translate(-175.72 -199.382)" fill="#fff"/>
        <path id="Trazado_69" data-name="Trazado 69" d="M384.492,372.055a42.429,42.429,0,0,0,11,2.819q9.5,1,18.9,1.083c7.157.061,14.525.176,21.8-.339q1.535-.107.038.25a118.982,118.982,0,0,1-25.89,3.28c-1.8.028-3.579.148-5.37.087-1.094-.038-2.169.1-3.229.066a97.164,97.164,0,0,1-15.132-1.506q-1.14-.219-3.839-1.03a32.68,32.68,0,0,1-8.067-3.647,15.408,15.408,0,0,1-4.758-4.578.846.846,0,0,1-.135-.507q.181-3,.321-5.814a6.587,6.587,0,0,0-.028-.981q-.035-.362.178-.069a31.165,31.165,0,0,0,14.2,10.885" transform="translate(-233.424 -227.884)" fill="#fff"/>
        <path id="Trazado_70" data-name="Trazado 70" d="M229.368,369.469c-3.443,4.333-8.671,6.8-13.941,8.161a61,61,0,0,1-10.883,1.786c-2.808.207-5.454.4-8.245.36q-4.781-.064-9.384-.242A112.52,112.52,0,0,1,163.2,376.1a.052.052,0,0,1-.038-.059l.013-.074a.009.009,0,0,1,.01-.007q4.312.408,8.65.461,10.4.13,20.9-.2a112.651,112.651,0,0,0,12.453-1.127c8.23-1.2,15.71-4.369,21.5-10.325a20.082,20.082,0,0,0,2.376-2.952c.052-.078.082-.07.087.023q.206,3.313.538,6.542a1.46,1.46,0,0,1-.321,1.091" transform="translate(-102.986 -228.339)" fill="#fff"/>
        <path id="Trazado_71" data-name="Trazado 71" d="M265.5,399.55a.379.379,0,0,0-.454.018,14.463,14.463,0,0,1-1.825,1.247c-5.977,3.438-12.639,4.906-19.793,5.492q-2.391.2-5.072.153a130.258,130.258,0,0,1-26.537-3.168.035.035,0,0,1-.031-.044v0a.046.046,0,0,1,.053-.043q3.946.3,6.433.329c6.254.061,12.519.084,18.646-.362a61.94,61.94,0,0,0,14.7-2.832,39.745,39.745,0,0,0,13.388-7.169.24.24,0,0,1,.339-.005,39.017,39.017,0,0,0,8.706,5.337,53.813,53.813,0,0,0,16.317,4.353,136.593,136.593,0,0,0,14.744.719q7.121-.013,13.6-.278.355-.015.01.066a120.744,120.744,0,0,1-27.34,3.115,67.433,67.433,0,0,1-7.249-.431A41.235,41.235,0,0,1,265.5,399.55" transform="translate(-133.677 -248.118)" fill="#fff"/>
        <path id="Trazado_72" data-name="Trazado 72" d="M348.7,427.536a4.738,4.738,0,0,0-4.412-3.555.138.138,0,0,1-.133-.142.131.131,0,0,1,.008-.041.175.175,0,0,1,.14-.117,5.246,5.246,0,0,0,4.284-3.746q.1-.314.212,0a5.706,5.706,0,0,0,4.021,3.721q.821.237-.018.4a5.083,5.083,0,0,0-3.4,2.3,7.819,7.819,0,0,0-.533,1.188q-.092.216-.171-.008" transform="translate(-217.226 -264.959)" fill="#fff"/>
        <path id="Trazado_73" data-name="Trazado 73" d="M278.474,140.648c27.112-33.451,24.908-82.06-5.887-112.284A82.045,82.045,0,0,0,179.933,12.9,88.367,88.367,0,0,0,166.3,21.142a82.725,82.725,0,0,0-33.06,60.8,84.737,84.737,0,0,0,19.028,59.075,81.942,81.942,0,0,1-18.078-30.855C113.928,45.11,173.947-15.291,239.2,3.47c29.622,8.373,53.343,34.08,59.3,64.251,5.367,25.832-2.031,53.565-20.02,72.927" transform="translate(-82.172 0)" fill="#fff"/>
      </g>
    </g>
  </g>
</svg>
