<svg xmlns="http://www.w3.org/2000/svg" width="87.396" height="87.395" viewBox="0 0 87.396 87.395">
  <g id="Grupo_60" data-name="Grupo 60" transform="translate(1 1)">
    <path id="Trazado_121" data-name="Trazado 121" d="M42.7,0A42.7,42.7,0,1,1,0,42.7,42.7,42.7,0,0,1,42.7,0Z" transform="translate(0 0)" fill="none" stroke="#fff" stroke-width="2"/>
    <path id="Trazado_103" data-name="Trazado 103" d="M1267.14,283.4a5.753,5.753,0,0,0-4.063,1.681,5.75,5.75,0,0,0,0,8.121,5.751,5.751,0,0,0,8.127,0,5.752,5.752,0,0,0,0-8.121A5.754,5.754,0,0,0,1267.14,283.4Zm0-3.828a9.561,9.561,0,1,1-6.772,2.8A9.592,9.592,0,0,1,1267.14,279.57Zm12.427-.48a2.4,2.4,0,0,1-.677,1.693,2.452,2.452,0,0,1-1.708.7,2.382,2.382,0,0,1-1.679-.7,2.378,2.378,0,0,1,0-3.383,2.382,2.382,0,0,1,1.679-.7,2.452,2.452,0,0,1,1.708.7A2.4,2.4,0,0,1,1279.567,279.09Zm-12.427-5.262c-4.741,0-5.507.015-7.715.112a10.5,10.5,0,0,0-3.446.633,5.676,5.676,0,0,0-2.061,1.346,5.8,5.8,0,0,0-1.354,2.067,10.45,10.45,0,0,0-.619,3.442c-.117,2.114-.117,2.853-.117,7.712,0,4.735,0,5.509.117,7.712a10.4,10.4,0,0,0,.619,3.439,5.449,5.449,0,0,0,1.354,2.067,5.565,5.565,0,0,0,2.061,1.346,10.341,10.341,0,0,0,3.446.636c2.12.1,2.856.112,7.715.112,4.741,0,5.507-.015,7.715-.112a10.5,10.5,0,0,0,3.446-.633,5.7,5.7,0,0,0,2.061-1.343,5.608,5.608,0,0,0,1.355-2.067,10.538,10.538,0,0,0,.618-3.445c.118-2.114.118-2.853.118-7.712,0-4.735,0-5.51-.118-7.712a10.457,10.457,0,0,0-.618-3.442,5.78,5.78,0,0,0-1.355-2.067,5.7,5.7,0,0,0-2.061-1.346,10.343,10.343,0,0,0-3.446-.633C1272.735,273.84,1272,273.828,1267.14,273.828Zm0-3.828c5.212,0,5.86.018,7.892.115a14.241,14.241,0,0,1,4.653.889,9.807,9.807,0,0,1,5.595,5.6,14.042,14.042,0,0,1,.883,4.65c.088,2.041.118,2.688.118,7.889s-.029,5.848-.118,7.889a14.007,14.007,0,0,1-.883,4.647,9.251,9.251,0,0,1-2.209,3.392,9.617,9.617,0,0,1-3.386,2.208,14.314,14.314,0,0,1-4.653.889c-2.032.091-2.679.115-7.892.115s-5.86-.021-7.892-.115a14.312,14.312,0,0,1-4.652-.889,9.587,9.587,0,0,1-3.387-2.208,9.3,9.3,0,0,1-2.208-3.392,14,14,0,0,1-.883-4.647c-.088-2.041-.118-2.689-.118-7.889s.029-5.848.118-7.889a14.029,14.029,0,0,1,.883-4.65,9.262,9.262,0,0,1,2.208-3.389A9.589,9.589,0,0,1,1254.6,271a14.24,14.24,0,0,1,4.652-.889C1261.28,270.024,1261.928,270,1267.14,270Z" transform="translate(-1222.969 -244.969)" fill="#fff"/>
  </g>
</svg>
