<svg xmlns="http://www.w3.org/2000/svg" xmlns:xlink="http://www.w3.org/1999/xlink" width="269.832" height="72.128" viewBox="0 0 269.832 72.128">
  <defs>
    <clipPath id="clip-path">
      <rect id="Rect치ngulo_5" data-name="Rect치ngulo 5" width="269.832" height="72.128" fill="none"/>
    </clipPath>
  </defs>
  <g id="Grupo_1" data-name="Grupo 1" clip-path="url(#clip-path)">
    <path id="Trazado_1" data-name="Trazado 1" d="M544.256,141.057a2.976,2.976,0,0,0-1.266-1.243,4.145,4.145,0,0,0-1.94-.43,3.991,3.991,0,0,0-3.09,1.266,4.8,4.8,0,0,0-1.161,3.38,4.863,4.863,0,0,0,1.219,3.519,4.441,4.441,0,0,0,3.357,1.266,4.058,4.058,0,0,0,2.474-.743,4.214,4.214,0,0,0,1.475-2.137h-5.041v-2.927h8.641V146.7a7.793,7.793,0,0,1-1.5,2.764,7.9,7.9,0,0,1-2.683,2.067,8.291,8.291,0,0,1-3.67.79,8.684,8.684,0,0,1-4.309-1.057,7.524,7.524,0,0,1-2.95-2.938,9.288,9.288,0,0,1,0-8.606,7.53,7.53,0,0,1,2.939-2.95,8.623,8.623,0,0,1,4.3-1.057,8.351,8.351,0,0,1,4.936,1.417,6.69,6.69,0,0,1,2.66,3.926Z" transform="translate(-445.647 -113.524)" fill="#072940"/>
    <path id="Trazado_2" data-name="Trazado 2" d="M647.968,150.09h5.2v3.066H644V136.849h3.972Z" transform="translate(-538.697 -114.473)" fill="#072940"/>
    <path id="Trazado_3" data-name="Trazado 3" d="M710.675,151.063a7.982,7.982,0,0,1-3.043-2.985,8.782,8.782,0,0,1,0-8.606,8.015,8.015,0,0,1,3.043-2.973,8.852,8.852,0,0,1,8.432,0,7.848,7.848,0,0,1,3.02,2.973,8.9,8.9,0,0,1-.012,8.606,7.924,7.924,0,0,1-3.02,2.985,8.829,8.829,0,0,1-8.421,0m7.341-3.856a5.642,5.642,0,0,0,0-6.887,4.019,4.019,0,0,0-3.124-1.289,4.066,4.066,0,0,0-3.148,1.278,5.676,5.676,0,0,0,0,6.911,4.047,4.047,0,0,0,3.148,1.289,4,4,0,0,0,3.124-1.3" transform="translate(-590.985 -113.286)" fill="#072940"/>
    <path id="Trazado_4" data-name="Trazado 4" d="M833.3,146.2a4.275,4.275,0,0,1-.569,5.761,6.027,6.027,0,0,1-3.984,1.2h-7.6V136.85h7.341a6.021,6.021,0,0,1,3.891,1.138,4.128,4.128,0,0,1,.65,5.482,3.9,3.9,0,0,1-2.009,1.324A3.8,3.8,0,0,1,833.3,146.2m-8.177-2.753h2.6a2.3,2.3,0,0,0,1.5-.43,1.544,1.544,0,0,0,.523-1.266,1.578,1.578,0,0,0-.523-1.278,2.263,2.263,0,0,0-1.5-.441h-2.6ZM829.6,149.5a1.609,1.609,0,0,0,.546-1.312,1.682,1.682,0,0,0-.569-1.347,2.333,2.333,0,0,0-1.568-.488h-2.88v3.6h2.927a2.356,2.356,0,0,0,1.545-.453" transform="translate(-686.887 -114.474)" fill="#072940"/>
    <path id="Trazado_5" data-name="Trazado 5" d="M918.324,150.277h-6.086l-.976,2.88H907.1L913,136.85h4.6l5.9,16.307h-4.2ZM917.3,147.21l-2.021-5.97-2,5.97Z" transform="translate(-758.784 -114.474)" fill="#072940"/>
    <path id="Trazado_6" data-name="Trazado 6" d="M1021.179,150.09h5.2v3.066h-9.176V136.849h3.972Z" transform="translate(-850.885 -114.473)" fill="#072940"/>
    <path id="Trazado_7" data-name="Trazado 7" d="M1116.789,140.032v3.3h5.32V146.4h-5.32v3.577h6.017v3.182h-9.989V136.85h9.989v3.183Z" transform="translate(-930.861 -114.474)" fill="#072940"/>
    <path id="Trazado_8" data-name="Trazado 8" d="M1194.009,153.157l-3.322-4.994-2.927,4.994h-4.506l5.227-8.293-5.343-8.014h4.623l3.275,4.925,2.881-4.925h4.506l-5.18,8.223,5.389,8.084Z" transform="translate(-989.684 -114.474)" fill="#072940"/>
    <path id="Trazado_9" data-name="Trazado 9" d="M1300.756,144.69a4.78,4.78,0,0,1-2,1.893,7.035,7.035,0,0,1-3.345.72h-2.462v5.854h-3.972V136.85h6.435a7.324,7.324,0,0,1,3.3.674,4.635,4.635,0,0,1,2.021,1.858,5.4,5.4,0,0,1,.674,2.718,5.252,5.252,0,0,1-.651,2.59m-3.949-1.08a2.324,2.324,0,0,0,0-3.02,2.372,2.372,0,0,0-1.7-.534h-2.16v4.088h2.16a2.369,2.369,0,0,0,1.7-.534" transform="translate(-1078.219 -114.474)" fill="#072940"/>
    <path id="Trazado_10" data-name="Trazado 10" d="M1376.542,151.063a7.981,7.981,0,0,1-3.043-2.985,8.78,8.78,0,0,1,0-8.606,8.014,8.014,0,0,1,3.043-2.973,8.852,8.852,0,0,1,8.432,0,7.849,7.849,0,0,1,3.02,2.973,8.9,8.9,0,0,1-.012,8.606,7.924,7.924,0,0,1-3.02,2.985,8.829,8.829,0,0,1-8.421,0m7.341-3.856a5.641,5.641,0,0,0,0-6.887,4.019,4.019,0,0,0-3.124-1.289,4.065,4.065,0,0,0-3.148,1.278,5.675,5.675,0,0,0,0,6.911,4.047,4.047,0,0,0,3.148,1.289,4,4,0,0,0,3.124-1.3" transform="translate(-1147.977 -113.286)" fill="#072940"/>
    <path id="Trazado_11" data-name="Trazado 11" d="M1495.336,153.156,1491.945,147h-.952v6.156h-3.972V136.849h6.667a7.339,7.339,0,0,1,3.287.674,4.647,4.647,0,0,1,2.033,1.847,5.158,5.158,0,0,1,.673,2.613,4.855,4.855,0,0,1-.917,2.9,4.939,4.939,0,0,1-2.706,1.812l3.763,6.458Zm-4.344-8.967h2.462a2.253,2.253,0,0,0,1.638-.534,2.017,2.017,0,0,0,.546-1.51,1.955,1.955,0,0,0-.546-1.463,2.255,2.255,0,0,0-1.638-.534h-2.462Z" transform="translate(-1243.879 -114.473)" fill="#072940"/>
    <path id="Trazado_12" data-name="Trazado 12" d="M1585.726,136.85v3.183h-4.321v13.125h-3.972V140.032h-4.321V136.85Z" transform="translate(-1315.895 -114.474)" fill="#072940"/>
    <path id="Trazado_13" data-name="Trazado 13" d="M536.131,305.608a4.614,4.614,0,0,1-2-1.519,4.147,4.147,0,0,1-.79-2.421h3.735a1.81,1.81,0,0,0,.554,1.221,1.78,1.78,0,0,0,1.231.421,1.925,1.925,0,0,0,1.231-.359,1.2,1.2,0,0,0,.451-1,1.179,1.179,0,0,0-.359-.882,2.9,2.9,0,0,0-.882-.575,14.257,14.257,0,0,0-1.488-.513,16.179,16.179,0,0,1-2.278-.862,4.208,4.208,0,0,1-1.519-1.272,3.546,3.546,0,0,1-.636-2.2,3.775,3.775,0,0,1,1.457-3.15,5.987,5.987,0,0,1,3.8-1.139,6.058,6.058,0,0,1,3.837,1.139,4.078,4.078,0,0,1,1.56,3.171h-3.8a1.486,1.486,0,0,0-.513-1.1,1.807,1.807,0,0,0-1.211-.4,1.508,1.508,0,0,0-1.026.339,1.221,1.221,0,0,0-.39.975,1.207,1.207,0,0,0,.657,1.088,10.734,10.734,0,0,0,2.052.842,19.034,19.034,0,0,1,2.268.9,4.322,4.322,0,0,1,1.508,1.252,3.352,3.352,0,0,1,.636,2.114,4.148,4.148,0,0,1-.626,2.237,4.386,4.386,0,0,1-1.816,1.6,6.215,6.215,0,0,1-2.811.6,7.409,7.409,0,0,1-2.832-.513" transform="translate(-446.134 -243.725)" fill="#072940"/>
    <path id="Trazado_14" data-name="Trazado 14" d="M613.078,305.177a7.057,7.057,0,0,1-2.688-2.637,7.758,7.758,0,0,1,0-7.6,7.081,7.081,0,0,1,2.688-2.627,7.819,7.819,0,0,1,7.449,0,6.934,6.934,0,0,1,2.668,2.627,7.863,7.863,0,0,1-.01,7.6,7,7,0,0,1-2.668,2.637,7.8,7.8,0,0,1-7.439,0m6.485-3.407a4.984,4.984,0,0,0,0-6.084,3.551,3.551,0,0,0-2.76-1.139,3.591,3.591,0,0,0-2.781,1.129,5.013,5.013,0,0,0,0,6.1,3.574,3.574,0,0,0,2.781,1.139,3.534,3.534,0,0,0,2.76-1.149" transform="translate(-509.753 -243.725)" fill="#072940"/>
    <path id="Trazado_15" data-name="Trazado 15" d="M715.189,304.318h4.6v2.709H711.68V292.621h3.509Z" transform="translate(-595.314 -244.775)" fill="#072940"/>
    <path id="Trazado_16" data-name="Trazado 16" d="M774.677,292.621v8.619a2.85,2.85,0,0,0,.636,1.991,2.4,2.4,0,0,0,1.867.7,2.468,2.468,0,0,0,1.888-.7,2.8,2.8,0,0,0,.657-1.991v-8.619h3.509v8.6a6.114,6.114,0,0,1-.821,3.263,5.257,5.257,0,0,1-2.206,2.011,6.938,6.938,0,0,1-3.088.677,6.762,6.762,0,0,1-3.047-.667,4.968,4.968,0,0,1-2.124-2.011,6.419,6.419,0,0,1-.78-3.273v-8.6Z" transform="translate(-645.075 -244.775)" fill="#072940"/>
    <path id="Trazado_17" data-name="Trazado 17" d="M866.4,292.621v2.811H862.58v11.594h-3.509V295.433h-3.817v-2.811Z" transform="translate(-715.412 -244.775)" fill="#072940"/>
    <rect id="Rect치ngulo_4" data-name="Rect치ngulo 4" width="3.509" height="14.406" transform="translate(152.749 47.846)" fill="#072940"/>
    <path id="Trazado_18" data-name="Trazado 18" d="M971.262,305.177a7.057,7.057,0,0,1-2.688-2.637,7.758,7.758,0,0,1,0-7.6,7.081,7.081,0,0,1,2.688-2.627,7.819,7.819,0,0,1,7.449,0,6.934,6.934,0,0,1,2.668,2.627,7.864,7.864,0,0,1-.01,7.6,7,7,0,0,1-2.668,2.637,7.8,7.8,0,0,1-7.439,0m6.485-3.407a4.984,4.984,0,0,0,0-6.084,3.551,3.551,0,0,0-2.76-1.139,3.591,3.591,0,0,0-2.781,1.129,5.013,5.013,0,0,0,0,6.1,3.574,3.574,0,0,0,2.781,1.139,3.535,3.535,0,0,0,2.76-1.149" transform="translate(-809.37 -243.725)" fill="#072940"/>
    <path id="Trazado_19" data-name="Trazado 19" d="M1082.751,307.027h-3.509l-5.869-8.886v8.886h-3.509V292.622h3.509l5.869,8.927v-8.927h3.509Z" transform="translate(-894.932 -244.775)" fill="#072940"/>
    <path id="Trazado_20" data-name="Trazado 20" d="M1199.536,306.249a4.221,4.221,0,0,1-1.755-1.4,3.573,3.573,0,0,1-.657-2.062h1.99a2.622,2.622,0,0,0,.831,1.693,2.982,2.982,0,0,0,2.124.687,3.1,3.1,0,0,0,2.1-.667,2.164,2.164,0,0,0,.77-1.713,1.948,1.948,0,0,0-.451-1.334,2.89,2.89,0,0,0-1.129-.78,17.7,17.7,0,0,0-1.826-.575,16.088,16.088,0,0,1-2.268-.739,3.653,3.653,0,0,1-1.457-1.159,3.406,3.406,0,0,1-.605-2.124,3.679,3.679,0,0,1,.6-2.072,3.878,3.878,0,0,1,1.673-1.4,5.888,5.888,0,0,1,2.473-.493,5.181,5.181,0,0,1,3.293,1.006,3.715,3.715,0,0,1,1.447,2.668h-2.052a2.217,2.217,0,0,0-.862-1.447,3.064,3.064,0,0,0-2.011-.626,2.915,2.915,0,0,0-1.908.605,2.068,2.068,0,0,0-.739,1.693,1.834,1.834,0,0,0,.441,1.272,2.845,2.845,0,0,0,1.088.749q.647.257,1.816.585a17.115,17.115,0,0,1,2.278.77,3.806,3.806,0,0,1,1.478,1.17,3.4,3.4,0,0,1,.616,2.145,3.765,3.765,0,0,1-.554,1.97,4.07,4.07,0,0,1-1.642,1.5,5.418,5.418,0,0,1-2.565.575,6.116,6.116,0,0,1-2.534-.5" transform="translate(-1001.384 -244.356)" fill="#072940"/>
    <path id="Trazado_21" data-name="Trazado 21" d="M1269.532,368.091a1.272,1.272,0,0,1,.9-2.175,1.172,1.172,0,0,1,.872.369,1.315,1.315,0,0,1,0,1.806,1.172,1.172,0,0,1-.872.369,1.228,1.228,0,0,1-.9-.369" transform="translate(-1061.643 -306.085)" fill="#072940"/>
    <path id="Trazado_22" data-name="Trazado 22" d="M1303.495,304.792h-6.238l-1.149,3.181h-1.97l5.171-14.221h2.155l5.151,14.221h-1.97Zm-.534-1.519-2.585-7.223-2.586,7.223Z" transform="translate(-1082.534 -245.721)" fill="#072940"/>
    <path id="Trazado_23" data-name="Trazado 23" d="M236.548,47.433q1.914.824,3.926,1.916.255.139-.035.139l-9.368.009a.087.087,0,0,1-.087-.087l0-4.288a.093.093,0,0,1,.105-.105l9.552.016a.05.05,0,0,1,.038.081.627.627,0,0,1-.182.151q-1.842,1.043-3.947,2.094a.041.041,0,0,0,0,.073" transform="translate(-193.214 -37.656)" fill="#072940"/>
    <path id="Trazado_24" data-name="Trazado 24" d="M173.988,96.953a1.505,1.505,0,0,1-1.3-1.593.056.056,0,0,1,.063-.064l7.681-.017a.06.06,0,0,1,.06.06s0,0,0,.006l-.4,4.608a.121.121,0,0,1-.123.122q-.661.051-1.392.129a16.611,16.611,0,0,0-6.331,2.008.163.163,0,0,1-.071.025q-.087,0-.051-.077c.444-.959.841-2.225,1.1-2.906q.426-1.129.8-2.236a.043.043,0,0,0-.035-.063" transform="translate(-143.972 -79.699)" fill="#072940"/>
    <path id="Trazado_25" data-name="Trazado 25" d="M236.608,96.959a.084.084,0,0,0-.053.106q.814,2.541,1.852,5.025.08.192-.1.093a17.407,17.407,0,0,0-7.853-2.107.064.064,0,0,1-.063-.062q-.113-2.331-.34-4.668c0-.031.011-.046.043-.046l7.765.014a.057.057,0,0,1,.064.063,1.448,1.448,0,0,1-.958,1.494c-.116.049-.234.05-.353.089" transform="translate(-192.432 -79.717)" fill="#072940"/>
    <path id="Trazado_26" data-name="Trazado 26" d="M149.763,146.292a1.482,1.482,0,0,1-1.255-1.512.063.063,0,0,1,.073-.075c1.111.023,2.219.06,3.358-.006q3.59-.2,6.312-.234.3,0,.625.016a.053.053,0,0,1,.055.064l-.513,5.849a.08.08,0,0,1-.075.072,26.006,26.006,0,0,0-6.477,1.095,18.331,18.331,0,0,0-4.1,1.764q-.669.4-1.331.829-.117.077-.058-.05.157-.333.347-.691c.541-1.023.941-2.114,1.406-3.162.3-.666.52-1.341.821-1.989q.435-.936.844-1.9.025-.059-.037-.073" transform="translate(-122.43 -120.844)" fill="#072940"/>
    <path id="Trazado_27" data-name="Trazado 27" d="M239.236,146.4a2.778,2.778,0,0,1,.171.324q.8,1.812,1.574,3.623c.518,1.21,1.13,2.464,1.713,3.69q.1.219-.1.083a22.731,22.731,0,0,0-11.876-3.645.1.1,0,0,1-.1-.094l-.453-5.833q-.006-.064.06-.064,3.414.038,7.407.245c.977.051,1.94.017,2.917-.011a.055.055,0,0,1,.064.062,1.533,1.533,0,0,1-1.346,1.539q-.077.014-.036.081" transform="translate(-192.535 -120.859)" fill="#072940"/>
    <path id="Trazado_28" data-name="Trazado 28" d="M116.444,210.9a1.641,1.641,0,0,1-1.54-1.949.058.058,0,0,1,.066-.059,12.963,12.963,0,0,0,2.058-.1q2.049-.294,5.081-.785a62.431,62.431,0,0,1,8-.8c.065,0,.094.029.087.094q-.475,4.28-1.027,8.553-.144,1.113-.263,2.244-.236,2.224-.453,4.5a.071.071,0,0,1-.07.071,24.82,24.82,0,0,0-11.374,3.985,14.95,14.95,0,0,0-2.712,2.355,17.333,17.333,0,0,0-1.159,1.483q-.071.1-.084-.022c-.019-.177-.017-.349-.041-.526a25.106,25.106,0,0,1-.188-5.048q.116-1.7.44-3.79a22.066,22.066,0,0,1,.461-2.224q.351-1.339.609-2.484a4.891,4.891,0,0,1,.29-.873c.224-.516.356-1.088.538-1.626a7.759,7.759,0,0,1,.33-.811q.5-1.069.97-2.156a.025.025,0,0,0-.014-.032h0" transform="translate(-94.333 -173.323)" fill="#072940"/>
    <path id="Trazado_29" data-name="Trazado 29" d="M247.833,210.9a.057.057,0,0,0-.054.06.064.064,0,0,0,0,.016q.143.417.333.837a40.861,40.861,0,0,1,2.442,7.314,32.325,32.325,0,0,1,.92,7.127q.006.485-.028,1.027c-.066,1.063-.121,2.094-.283,3.164q-.04.268-.148.019a4.09,4.09,0,0,0-.638-.9,13.746,13.746,0,0,0-2.84-2.66,20.436,20.436,0,0,0-3.987-2.214,28.368,28.368,0,0,0-7.806-2,.073.073,0,0,1-.066-.067c-.427-5.08-1.072-10.089-1.732-15.269q-.016-.118.1-.113a72.108,72.108,0,0,1,7.842.746q2.076.319,4.172.651a27.374,27.374,0,0,0,3.2.318.073.073,0,0,1,.078.07,1.571,1.571,0,0,1-1.513,1.876" transform="translate(-195.696 -173.356)" fill="#072940"/>
    <path id="Trazado_30" data-name="Trazado 30" d="M244.918,324.536q-.516,1.152-.985,2.308a.045.045,0,0,1-.069.028,19.7,19.7,0,0,1-5.443-3.228,11.831,11.831,0,0,1-4-8.236q-.007-.093.054-.024a20.32,20.32,0,0,0,4.654,3.941A21.4,21.4,0,0,0,246,321.937q.061.011.04.069c-.321.858-.745,1.693-1.121,2.53" transform="translate(-196.089 -263.792)" fill="#072940"/>
    <path id="Trazado_31" data-name="Trazado 31" d="M149.584,325.642q-.679-1.552-1.373-3.207a.037.037,0,0,1,.019-.049l.007,0a20.12,20.12,0,0,0,10.263-5.293q.592-.592,1.1-1.154.119-.131.1.044c-.067.616-.1,1.215-.225,1.83a12.5,12.5,0,0,1-5.866,7.876,20.313,20.313,0,0,1-3.277,1.63.053.053,0,0,1-.077-.034q-.324-.843-.673-1.642" transform="translate(-123.975 -264.233)" fill="#072940"/>
    <path id="Trazado_32" data-name="Trazado 32" d="M246.136,365.922a18.81,18.81,0,0,0,4.878,1.25q4.211.445,8.38.48c3.173.027,6.439.078,9.666-.15q.68-.047.017.111a52.747,52.747,0,0,1-11.478,1.454c-.8.012-1.587.066-2.381.038-.485-.017-.962.045-1.432.029a43.072,43.072,0,0,1-6.708-.668q-.505-.1-1.7-.457a14.49,14.49,0,0,1-3.576-1.617,6.832,6.832,0,0,1-2.11-2.029.375.375,0,0,1-.06-.225q.08-1.33.142-2.577a2.918,2.918,0,0,0-.012-.435q-.016-.16.079-.03a13.816,13.816,0,0,0,6.3,4.826" transform="translate(-200.448 -302.005)" fill="#072940"/>
    <path id="Trazado_33" data-name="Trazado 33" d="M62.328,365.178a11.354,11.354,0,0,1-6.181,3.618,27.045,27.045,0,0,1-4.825.792c-1.245.092-2.418.176-3.655.159q-2.12-.028-4.16-.107a49.888,49.888,0,0,1-10.513-1.523.023.023,0,0,1-.017-.026l.006-.033a0,0,0,0,1,0,0q1.912.181,3.835.2,4.609.058,9.264-.09a49.95,49.95,0,0,0,5.521-.5,16.178,16.178,0,0,0,9.533-4.577,8.906,8.906,0,0,0,1.053-1.309c.023-.035.036-.031.038.01q.091,1.469.238,2.9a.647.647,0,0,1-.142.484" transform="translate(-27.584 -302.609)" fill="#072940"/>
    <path id="Trazado_34" data-name="Trazado 34" d="M105.412,395.957a.168.168,0,0,0-.2.008,6.406,6.406,0,0,1-.809.553,20.609,20.609,0,0,1-8.775,2.435q-1.06.087-2.249.068a57.748,57.748,0,0,1-11.765-1.4.015.015,0,0,1-.014-.019h0a.02.02,0,0,1,.024-.019q1.749.134,2.852.146c2.773.027,5.55.037,8.267-.16a27.465,27.465,0,0,0,6.519-1.255,17.622,17.622,0,0,0,5.936-3.178.106.106,0,0,1,.15,0,17.3,17.3,0,0,0,3.86,2.366,23.858,23.858,0,0,0,7.234,1.93,60.546,60.546,0,0,0,6.537.319q3.157-.006,6.029-.123.157-.007,0,.029a53.533,53.533,0,0,1-12.121,1.381,29.894,29.894,0,0,1-3.214-.191,18.282,18.282,0,0,1-8.264-2.879" transform="translate(-68.257 -328.821)" fill="#072940"/>
    <path id="Trazado_35" data-name="Trazado 35" d="M215.982,423.218a2.1,2.1,0,0,0-1.956-1.576.061.061,0,0,1-.059-.063.059.059,0,0,1,0-.018.078.078,0,0,1,.062-.052,2.326,2.326,0,0,0,1.9-1.661q.045-.139.094,0a2.53,2.53,0,0,0,1.783,1.65q.364.105-.008.179a2.253,2.253,0,0,0-1.507,1.02,3.466,3.466,0,0,0-.236.527q-.041.1-.076,0" transform="translate(-178.981 -351.14)" fill="#072940"/>
    <path id="Trazado_36" data-name="Trazado 36" d="M65.742,62.356a37.035,37.035,0,0,0-2.61-49.78A36.374,36.374,0,0,0,22.055,5.721,39.177,39.177,0,0,0,16.01,9.374,36.676,36.676,0,0,0,1.353,36.331a37.567,37.567,0,0,0,8.436,26.19A36.327,36.327,0,0,1,1.774,48.842C-7.208,20,19.4-6.778,48.33,1.539A37.781,37.781,0,0,1,74.618,30.025a36.888,36.888,0,0,1-8.876,32.332" transform="translate(0 -0.001)" fill="#072940"/>
  </g>
</svg>
